# 3ds Max Wavefront OBJ Exporter v0.97b - (c)2007 guruware
# File Created: 15.04.2016 14:03:41

mtllib simple_scene.mtl

#
# object Box001
#

v  -0.5199 -0.0298 0.4783
v  0.5199 0.0298 -0.4783
v  0.4785 -0.0714 0.5157
v  -0.4823 0.9642 0.5811
v  0.5575 1.0238 -0.3756
v  -0.4409 1.0654 -0.4129
v  0.5161 0.9226 0.6184
v  -0.4785 0.0714 -0.5157
# 8 vertices

vn -0.0376 -0.9940 -0.1027
vn 0.0376 0.9940 0.1027
vn -0.0414 -0.1012 0.9940
vn 0.9984 -0.0416 0.0373
vn 0.0414 0.1012 -0.9940
vn -0.9984 0.0416 -0.0373
# 6 vertex normals

vt 1.0000 0.0000 0.0000
vt 0.0000 1.0000 0.0000
vt 0.0000 0.0000 0.0000
vt 1.0000 1.0000 0.0000
# 4 texture coords

g Box001
usemtl Material__25
s 2
f 1/1/1 2/2/1 3/3/1 
s 4
f 4/3/2 5/4/2 6/2/2 
s 8
f 1/3/3 7/4/3 4/2/3 
s 16
f 3/3/4 5/4/4 7/2/4 
s 32
f 2/3/5 6/4/5 5/2/5 
s 64
f 8/3/6 4/4/6 6/2/6 
s 2
f 1/1/1 8/4/1 2/2/1 
s 4
f 4/3/2 7/1/2 5/4/2 
s 8
f 1/3/3 3/1/3 7/4/3 
s 16
f 3/3/4 2/1/4 5/4/4 
s 32
f 2/3/5 8/1/5 6/4/5 
s 64
f 8/3/6 1/1/6 4/4/6 
# 0 polygons - 12 triangles

