# 3ds Max Wavefront OBJ Exporter v0.97b - (c)2007 guruware
# File Created: 15.04.2016 17:19:35

mtllib sphere.mtl

#
# object Sphere001
#

v  0.0000 1.0000 -0.0000
v  -0.0000 0.7071 -0.7071
v  -0.5000 0.7071 -0.5000
v  -0.7071 0.7071 0.0000
v  -0.5000 0.7071 0.5000
v  0.0000 0.7071 0.7071
v  0.5000 0.7071 0.5000
v  0.7071 0.7071 0.0000
v  0.5000 0.7071 -0.5000
v  -0.0000 -0.0000 -1.0000
v  -0.7071 -0.0000 -0.7071
v  -1.0000 -0.0000 0.0000
v  -0.7071 -0.0000 0.7071
v  0.0000 -0.0000 1.0000
v  0.7071 -0.0000 0.7071
v  1.0000 -0.0000 0.0000
v  0.7071 -0.0000 -0.7071
v  -0.0000 -0.7071 -0.7071
v  -0.5000 -0.7071 -0.5000
v  -0.7071 -0.7071 0.0000
v  -0.5000 -0.7071 0.5000
v  0.0000 -0.7071 0.7071
v  0.5000 -0.7071 0.5000
v  0.7071 -0.7071 0.0000
v  0.5000 -0.7071 -0.5000
v  0.0000 -1.0000 -0.0000
# 26 vertices

vn -0.1566 0.9125 -0.3780
vn -0.1566 0.9125 -0.3780
vn -0.1566 0.9125 -0.3780
vn -0.3780 0.9125 -0.1566
vn -0.3780 0.9125 -0.1566
vn -0.3780 0.9125 -0.1566
vn -0.3780 0.9125 0.1566
vn -0.3780 0.9125 0.1566
vn -0.3780 0.9125 0.1566
vn -0.1566 0.9125 0.3780
vn -0.1566 0.9125 0.3780
vn -0.1566 0.9125 0.3780
vn 0.1566 0.9125 0.3780
vn 0.1566 0.9125 0.3780
vn 0.1566 0.9125 0.3780
vn 0.3780 0.9125 0.1566
vn 0.3780 0.9125 0.1566
vn 0.3780 0.9125 0.1566
vn 0.3780 0.9125 -0.1566
vn 0.3780 0.9125 -0.1566
vn 0.3780 0.9125 -0.1566
vn 0.1566 0.9125 -0.3780
vn 0.1566 0.9125 -0.3780
vn 0.1566 0.9125 -0.3780
vn -0.3574 0.3574 -0.8629
vn -0.3574 0.3574 -0.8629
vn -0.3574 0.3574 -0.8629
vn -0.3574 0.3574 -0.8629
vn -0.3574 0.3574 -0.8629
vn -0.3574 0.3574 -0.8629
vn -0.8629 0.3574 -0.3574
vn -0.8629 0.3574 -0.3574
vn -0.8629 0.3574 -0.3574
vn -0.8629 0.3574 -0.3574
vn -0.8629 0.3574 -0.3574
vn -0.8629 0.3574 -0.3574
vn -0.8629 0.3574 0.3574
vn -0.8629 0.3574 0.3574
vn -0.8629 0.3574 0.3574
vn -0.8629 0.3574 0.3574
vn -0.8629 0.3574 0.3574
vn -0.8629 0.3574 0.3574
vn -0.3574 0.3574 0.8629
vn -0.3574 0.3574 0.8629
vn -0.3574 0.3574 0.8629
vn -0.3574 0.3574 0.8629
vn -0.3574 0.3574 0.8629
vn -0.3574 0.3574 0.8629
vn 0.3574 0.3574 0.8629
vn 0.3574 0.3574 0.8629
vn 0.3574 0.3574 0.8629
vn 0.3574 0.3574 0.8629
vn 0.3574 0.3574 0.8629
vn 0.3574 0.3574 0.8629
vn 0.8629 0.3574 0.3574
vn 0.8629 0.3574 0.3574
vn 0.8629 0.3574 0.3574
vn 0.8629 0.3574 0.3574
vn 0.8629 0.3574 0.3574
vn 0.8629 0.3574 0.3574
vn 0.8629 0.3574 -0.3574
vn 0.8629 0.3574 -0.3574
vn 0.8629 0.3574 -0.3574
vn 0.8629 0.3574 -0.3574
vn 0.8629 0.3574 -0.3574
vn 0.8629 0.3574 -0.3574
vn 0.3574 0.3574 -0.8629
vn 0.3574 0.3574 -0.8629
vn 0.3574 0.3574 -0.8629
vn 0.3574 0.3574 -0.8629
vn 0.3574 0.3574 -0.8629
vn 0.3574 0.3574 -0.8629
vn -0.3574 -0.3574 -0.8629
vn -0.3574 -0.3574 -0.8629
vn -0.3574 -0.3574 -0.8629
vn -0.3574 -0.3574 -0.8629
vn -0.3574 -0.3574 -0.8629
vn -0.3574 -0.3574 -0.8629
vn -0.8629 -0.3574 -0.3574
vn -0.8629 -0.3574 -0.3574
vn -0.8629 -0.3574 -0.3574
vn -0.8629 -0.3574 -0.3574
vn -0.8629 -0.3574 -0.3574
vn -0.8629 -0.3574 -0.3574
vn -0.8629 -0.3574 0.3574
vn -0.8629 -0.3574 0.3574
vn -0.8629 -0.3574 0.3574
vn -0.8629 -0.3574 0.3574
vn -0.8629 -0.3574 0.3574
vn -0.8629 -0.3574 0.3574
vn -0.3574 -0.3574 0.8629
vn -0.3574 -0.3574 0.8629
vn -0.3574 -0.3574 0.8629
vn -0.3574 -0.3574 0.8629
vn -0.3574 -0.3574 0.8629
vn -0.3574 -0.3574 0.8629
vn 0.3574 -0.3574 0.8629
vn 0.3574 -0.3574 0.8629
vn 0.3574 -0.3574 0.8629
vn 0.3574 -0.3574 0.8629
vn 0.3574 -0.3574 0.8629
vn 0.3574 -0.3574 0.8629
vn 0.8629 -0.3574 0.3574
vn 0.8629 -0.3574 0.3574
vn 0.8629 -0.3574 0.3574
vn 0.8629 -0.3574 0.3574
vn 0.8629 -0.3574 0.3574
vn 0.8629 -0.3574 0.3574
vn 0.8629 -0.3574 -0.3574
vn 0.8629 -0.3574 -0.3574
vn 0.8629 -0.3574 -0.3574
vn 0.8629 -0.3574 -0.3574
vn 0.8629 -0.3574 -0.3574
vn 0.8629 -0.3574 -0.3574
vn 0.3574 -0.3574 -0.8629
vn 0.3574 -0.3574 -0.8629
vn 0.3574 -0.3574 -0.8629
vn 0.3574 -0.3574 -0.8629
vn 0.3574 -0.3574 -0.8629
vn 0.3574 -0.3574 -0.8629
vn -0.1566 -0.9125 -0.3780
vn -0.1566 -0.9125 -0.3780
vn -0.1566 -0.9125 -0.3780
vn -0.3780 -0.9125 -0.1566
vn -0.3780 -0.9125 -0.1566
vn -0.3780 -0.9125 -0.1566
vn -0.3780 -0.9125 0.1566
vn -0.3780 -0.9125 0.1566
vn -0.3780 -0.9125 0.1566
vn -0.1566 -0.9125 0.3780
vn -0.1566 -0.9125 0.3780
vn -0.1566 -0.9125 0.3780
vn 0.1566 -0.9125 0.3780
vn 0.1566 -0.9125 0.3780
vn 0.1566 -0.9125 0.3780
vn 0.3780 -0.9125 0.1566
vn 0.3780 -0.9125 0.1566
vn 0.3780 -0.9125 0.1566
vn 0.3780 -0.9125 -0.1566
vn 0.3780 -0.9125 -0.1566
vn 0.3780 -0.9125 -0.1566
vn 0.1566 -0.9125 -0.3780
vn 0.1566 -0.9125 -0.3780
vn 0.1566 -0.9125 -0.3780
# 144 vertex normals

vt 0.0000 1.0000 0.0000
vt 0.0000 0.7500 0.0000
vt 0.1250 0.7500 0.0000
vt 0.1250 1.0000 0.0000
vt 0.2500 0.7500 0.0000
vt 0.2500 1.0000 0.0000
vt 0.3750 0.7500 0.0000
vt 0.3750 1.0000 0.0000
vt 0.5000 0.7500 0.0000
vt 0.5000 1.0000 0.0000
vt 0.6250 0.7500 0.0000
vt 0.6250 1.0000 0.0000
vt 0.7500 0.7500 0.0000
vt 0.7500 1.0000 0.0000
vt 0.8750 0.7500 0.0000
vt 0.8750 1.0000 0.0000
vt 1.0000 0.7500 0.0000
vt 0.0000 0.5000 0.0000
vt 0.1250 0.5000 0.0000
vt 0.2500 0.5000 0.0000
vt 0.3750 0.5000 0.0000
vt 0.5000 0.5000 0.0000
vt 0.6250 0.5000 0.0000
vt 0.7500 0.5000 0.0000
vt 0.8750 0.5000 0.0000
vt 1.0000 0.5000 0.0000
vt 0.0000 0.2500 0.0000
vt 0.1250 0.2500 0.0000
vt 0.2500 0.2500 0.0000
vt 0.3750 0.2500 0.0000
vt 0.5000 0.2500 0.0000
vt 0.6250 0.2500 0.0000
vt 0.7500 0.2500 0.0000
vt 0.8750 0.2500 0.0000
vt 1.0000 0.2500 0.0000
vt 0.0000 0.0000 0.0000
vt 0.1250 0.0000 0.0000
vt 0.2500 0.0000 0.0000
vt 0.3750 0.0000 0.0000
vt 0.5000 0.0000 0.0000
vt 0.6250 0.0000 0.0000
vt 0.7500 0.0000 0.0000
vt 0.8750 0.0000 0.0000
# 43 texture coords

g Sphere001
usemtl Material__26
s off
f 1/1/1 2/2/2 3/3/3 
f 1/4/4 3/3/5 4/5/6 
f 1/6/7 4/5/8 5/7/9 
f 1/8/10 5/7/11 6/9/12 
f 1/10/13 6/9/14 7/11/15 
f 1/12/16 7/11/17 8/13/18 
f 1/14/19 8/13/20 9/15/21 
f 1/16/22 9/15/23 2/17/24 
f 2/2/25 10/18/26 11/19/27 
f 2/2/28 11/19/29 3/3/30 
f 3/3/31 11/19/32 12/20/33 
f 3/3/34 12/20/35 4/5/36 
f 4/5/37 12/20/38 13/21/39 
f 4/5/40 13/21/41 5/7/42 
f 5/7/43 13/21/44 14/22/45 
f 5/7/46 14/22/47 6/9/48 
f 6/9/49 14/22/50 15/23/51 
f 6/9/52 15/23/53 7/11/54 
f 7/11/55 15/23/56 16/24/57 
f 7/11/58 16/24/59 8/13/60 
f 8/13/61 16/24/62 17/25/63 
f 8/13/64 17/25/65 9/15/66 
f 9/15/67 17/25/68 10/26/69 
f 9/15/70 10/26/71 2/17/72 
f 10/18/73 18/27/74 19/28/75 
f 10/18/76 19/28/77 11/19/78 
f 11/19/79 19/28/80 20/29/81 
f 11/19/82 20/29/83 12/20/84 
f 12/20/85 20/29/86 21/30/87 
f 12/20/88 21/30/89 13/21/90 
f 13/21/91 21/30/92 22/31/93 
f 13/21/94 22/31/95 14/22/96 
f 14/22/97 22/31/98 23/32/99 
f 14/22/100 23/32/101 15/23/102 
f 15/23/103 23/32/104 24/33/105 
f 15/23/106 24/33/107 16/24/108 
f 16/24/109 24/33/110 25/34/111 
f 16/24/112 25/34/113 17/25/114 
f 17/25/115 25/34/116 18/35/117 
f 17/25/118 18/35/119 10/26/120 
f 26/36/121 19/28/122 18/27/123 
f 26/37/124 20/29/125 19/28/126 
f 26/38/127 21/30/128 20/29/129 
f 26/39/130 22/31/131 21/30/132 
f 26/40/133 23/32/134 22/31/135 
f 26/41/136 24/33/137 23/32/138 
f 26/42/139 25/34/140 24/33/141 
f 26/43/142 18/35/143 25/34/144 
# 48 faces

